<?xml version="1.0" standalone="no"?><!DOCTYPE svg PUBLIC "-//W3C//DTD SVG 1.1//EN" "http://www.w3.org/Graphics/SVG/1.1/DTD/svg11.dtd"><svg class="icon" width="200px" height="200.00px" viewBox="0 0 1024 1024" version="1.1" xmlns="http://www.w3.org/2000/svg"><path fill="#14ce6f" d="M994.133333 725.333333c0-68.266667-55.466667-110.933333-174.933333-170.666666-12.8-8.533333-25.6-17.066667-29.866667-34.133334-4.266667-21.333333 34.133333-51.2 42.666667-89.6 8.533333-38.4 8.533333-93.866667 8.533333-93.866666 0-81.066667-34.133333-140.8-98.133333-174.933334-29.866667-17.066667-64-25.6-98.133333-25.6-34.133333 0-59.733333 4.266667-89.6 21.333334 8.533333 4.266667 46.933333 38.4 59.733333 55.466666 8.533333 0 17.066667-4.266667 29.866667-4.266666 21.333333 0 46.933333 4.266667 64 17.066666 42.666667 17.066667 59.733333 55.466667 59.733333 110.933334 0 0 0 46.933333-8.533333 76.8-4.266667 21.333333-12.8 38.4-21.333334 51.2-4.266667 8.533333-29.866667 34.133333-29.866666 64 0 38.4 21.333333 55.466667 81.066666 85.333333 102.4 51.2 136.533333 76.8 136.533334 110.933333l4.266666 38.4h-93.866666v68.266667h115.2c29.866667 0 51.2-25.6 46.933333-55.466667l-4.266667-51.2zM759.466667 772.266667c0-72.533333-55.466667-110.933333-183.466667-174.933334-12.8-8.533333-25.6-17.066667-29.866667-34.133333-4.266667-25.6 29.866667-38.4 42.666667-93.866667 8.533333-42.666667 8.533333-98.133333 8.533333-98.133333 0-85.333333-34.133333-149.333333-102.4-183.466667-29.866667-17.066667-64-29.866667-102.4-29.866666-34.133333 0-68.266667 12.8-102.4 29.866666-64 34.133333-98.133333 98.133333-98.133333 183.466667 0 0 0 55.466667 8.533333 98.133333 12.8 55.466667 46.933333 68.266667 42.666667 93.866667-4.266667 12.8-17.066667 25.6-29.866667 34.133333C85.333333 661.333333 29.866667 699.733333 29.866667 772.266667l-4.266667 59.733333c0 29.866667 21.333333 55.466667 51.2 59.733333h640c29.866667-4.266667 51.2-29.866667 51.2-59.733333l-8.533333-59.733333z m-366.933334 46.933333H98.133333l4.266667-42.666667c0-34.133333 34.133333-59.733333 140.8-115.2 59.733333-29.866667 81.066667-46.933333 81.066667-89.6 0-29.866667-25.6-59.733333-29.866667-68.266666-8.533333-12.8-17.066667-29.866667-21.333333-51.2-12.8-34.133333-8.533333-81.066667-8.533334-81.066667 0-55.466667 21.333333-98.133333 64-119.466667 17.066667-12.8 42.666667-17.066667 68.266667-17.066666 25.6 0 51.2 4.266667 68.266667 17.066666 42.666667 21.333333 64 59.733333 64 119.466667 0 0 0 46.933333-8.533334 81.066667-4.266667 25.6-12.8 38.4-21.333333 51.2-4.266667 8.533333-34.133333 38.4-29.866667 68.266666 0 42.666667 21.333333 59.733333 81.066667 89.6 106.666667 55.466667 140.8 81.066667 140.8 115.2l4.266667 42.666667H392.533333z" /></svg>