<?xml version="1.0" standalone="no"?><!DOCTYPE svg PUBLIC "-//W3C//DTD SVG 1.1//EN" "http://www.w3.org/Graphics/SVG/1.1/DTD/svg11.dtd"><svg class="icon" width="200px" height="200.00px" viewBox="0 0 1024 1024" version="1.1" xmlns="http://www.w3.org/2000/svg"><path fill="#14ce6f" d="M704 128v64H320v-64h384m0-64H320c-35.3 0-64 28.7-64 64v64c0 35.3 28.7 64 64 64h384c35.3 0 64-28.7 64-64v-64c0-35.3-28.7-64-64-64zM540 684.8v16.4h-70.1v-18.7c-1.6-46.7 20.2-86.5 65.4-119.2 43.6-29.6 63.1-60.8 58.4-93.5-4.7-37.4-28-57.6-70.1-60.8-56.1-1.5-88.8 26.5-98.2 84.1l-74.8-21c20.2-91.9 80.2-135.6 180-130.9 87.2 4.7 134.7 48.3 142.6 130.9 1.5 51.4-28 99-88.8 142.6-31.2 20.2-46 43.6-44.4 70.1z m0 65.2h-70v70h70v-70z m292-622h-64v64h64v704H192V192h64v-64h-64c-35.3 0-64 28.7-64 64v704c0 35.3 28.7 64 64 64h640c35.3 0 64-28.7 64-64V192c0-35.3-28.7-64-64-64z" /></svg>