<?xml version="1.0" standalone="no"?><!DOCTYPE svg PUBLIC "-//W3C//DTD SVG 1.1//EN" "http://www.w3.org/Graphics/SVG/1.1/DTD/svg11.dtd"><svg t="1721821453919" class="icon" viewBox="0 0 1024 1024" version="1.1" xmlns="http://www.w3.org/2000/svg" p-id="7333" xmlns:xlink="http://www.w3.org/1999/xlink" width="200" height="200"><path d="M204.2 959.8c-47.6 0-86.3-38.6-86.3-85.9V122.4c0-32.1 26.2-58.2 58.4-58.2h670.8c32.2 0 58.4 26.1 58.4 58.2v667.8c0 14-9.6 26.3-22.9 29.3l-4.9 1.1v105.8H889c9.3 0 16.9 7.4 16.9 16.4 0 9.3-7.6 16.9-16.9 16.9l-684.8 0.1z m0-138.6c-19.7 0-43.2 8.1-43.2 46.7 0 31 14.5 46.7 43.2 46.7h627.4v-93.4H204.2z m-40.5-37.8l9-4.3c9.2-4.4 16.2-4.4 31.5-4.4h25.5V109.8h-40.1c-14 0-25.5 11.4-25.5 25.4v2.8h-0.5v645.4z m112.6-8.7h583.5V135.2c0-14-11.4-25.4-25.5-25.4h-558v664.9z m364.4-375.5c13 0 23.6 10.5 23.6 23.6 0 13.1-10.6 23.6-23.6 23.6H371.4c-13 0-23.6-10.5-23.6-23.6 0-13.1 10.6-23.6 23.6-23.6h269.3z m99.5-80.1c13 0 23.1 10.5 23.6 23.6 0 13.1-10.6 23.6-23.6 23.6H371.4c-13 0-23.6-10.5-23.6-23.6 0-13.1 10.6-23.6 23.6-23.6h368.8z m-368.8-33.7c-13 0-23.6-10.5-23.6-23.2s10.6-23.2 23.6-23.2h170.3c13 0 23.6 10.5 23.6 23.2s-10.6 23.2-23.6 23.2H371.4z" p-id="7334" fill="#a9a9a9"></path></svg>